<svg width="64" height="64" viewBox="0 0 64 64" xmlns="http://www.w3.org/2000/svg">
  <!-- Calendar background -->
  <rect x="8" y="12" width="48" height="44" rx="4" ry="4" fill="#ffffff" stroke="#333333" stroke-width="2"/>

  <!-- Calendar header -->
  <rect x="8" y="12" width="48" height="12" rx="4" ry="4" fill="#f0f0f0" stroke="#333333" stroke-width="2"/>

  <!-- Calendar binding -->
  <circle cx="32" cy="18" r="2" fill="#666666"/>

  <!-- Calendar grid lines -->
  <line x1="20" y1="24" x2="20" y2="52" stroke="#cccccc" stroke-width="1"/>
  <line x1="32" y1="24" x2="32" y2="52" stroke="#cccccc" stroke-width="1"/>
  <line x1="44" y1="24" x2="44" y2="52" stroke="#cccccc" stroke-width="1"/>
  <line x1="8" y1="30" x2="56" y2="30" stroke="#cccccc" stroke-width="1"/>
  <line x1="8" y1="36" x2="56" y2="36" stroke="#cccccc" stroke-width="1"/>
  <line x1="8" y1="42" x2="56" y2="42" stroke="#cccccc" stroke-width="1"/>
  <line x1="8" y1="48" x2="56" y2="48" stroke="#cccccc" stroke-width="1"/>

  <!-- Red ball in front -->
  <circle cx="26" cy="36" r="8" fill="#ff0000" stroke="#cc0000" stroke-width="1"/>
  <circle cx="24" cy="34" r="1.5" fill="#ffffff"/>
  <circle cx="28" cy="34" r="1.5" fill="#ffffff"/>
    <!-- Red ball in front -->
  <circle cx="36" cy="42" r="8" fill="#000000" stroke="#cc0000" stroke-width="1"/>
  <circle cx="34" cy="40" r="1.5" fill="#ffffff"/>
  <circle cx="38" cy="40" r="1.5" fill="#ffffff"/>
</svg>